<svg id="Layer_1" data-name="Layer 1" xmlns="http://www.w3.org/2000/svg" viewBox="0 0 600 513"><defs><style>.cls-1{fill:#fff;}.cls-2,.cls-3{fill:#ff001f;}.cls-3{fill-rule:evenodd;}.cls-4{font-size:180px;font-family:MyanmarText, Myanmar Text;}</style></defs><title>ports retropie</title><rect class="cls-1" width="600" height="513"/><rect class="cls-2" x="200" width="201" height="100"/><rect class="cls-1" x="263.25" y="17.5" width="79.5" height="70"/><path class="cls-3" d="M337.25,16h7.24V142.08h-7.24v-.52h6.7V119h-6.7v-4.28h3.89v-23h-3.89V80L340.67,77V58.14h-3.42V46h3.42V29.92l-3.42-3.33V16Zm0,122.69h4.34v-3.26h-2.65v-4.12h2.23v-3.26h-2.23v-3h2.65v-3.28h-4.34ZM333.67,16h3.58V26.59l-3.58-3.49V16Zm3.58,126.05h-3.58v-.52h3.58v.52Zm0-96v12.1h-3.58V46Zm0,34v11.7h-1.82l-1.6,11.34h-.16V83.23l3.58-3.2Zm0,34.69h-.9l.18-11.81-.27,0-1.71,11.83h-.88V103.07h.05l.25,11.65h-.31V119h3.58v-4.28Zm0,7v17h-2.38v-17ZM330.09,16h3.58V23.1l-2.47-2.41h-1.12V16Zm3.58,126.05h-3.58v-.52h3.58v.52Zm0-96v12.1h-3.58V46Zm0,37.19v19.84h-.16l-1.6-11.34h-1.82V86.22h.25l3.33-3Zm0,19.84v11.65h-.86l-1.73-11.83-.27,0,.18,11.81h-.9V119h3.58v-4.28h-.29l.25-11.65Zm-3.58,35.64V121.77h1l2.3,2.38v4.45l-1.73,1.67,1.73,1.67v6.77ZM329.15,16h.94v4.66h-.94V16Zm.94,126.05h-.94v-.52h.94v.52Zm0-96v12.1h-.94V46Zm0,40.18v5.51h-.94V86.22Zm0,28.49V119h-.94v-4.28Zm0,7.06v16.94h-.56v-6.77h-.38v-3.31h.38V125h-.38v-3.28ZM318.5,16h10.66v4.66H318.5V16Zm10.66,126.05H318.5v-.52h10.66v.52Zm0-96v12.1h-4.86V73.66h-3.4V33.18h3.4V46Zm0,40.18v5.51h-3v23h3V119H318.5v-4.28h2.83l3-3.24V95l-3-3.24H318.5V86.22Zm0,35.55V125h-.38v3.58h.38v3.31h-.38v6.77h-4V121.77ZM318.5,135.58v-3.15h.79l-.47-6.57h-.16L318.5,128v-6.3h.45l2.54,0,2.2,17h-3.94l-.23-3.13Zm0-25.31h.5V96.18h-.5ZM314.29,16h4.21v4.66h-4.21V16Zm4.21,126.05h-4.21v-.52h4.21v.52Zm0-55.85v5.51h-2.79l-1.42,1.51V85.38l1,.85Zm0,10v14.09H318V96.18Zm0,18.54V119h-4.21v-5.8l1.42,1.51Zm0,7V128l-.31,4.39h.31v3.15H318l-.22,3.13h-3.47V135L316,121.75l2.48,0Zm-4.21,3,.49-3h-.49ZM305.07,16h9.22v4.66h-.61l-8.6,8.39V16Zm9.22,126.05h-9.22v-.52h9.22v.52Zm0-56.7v7.87L312.67,95v16.51l1.62,1.73V119h-9.22V105.54h.49v9.18h5.15l0-9.18-2.27-2.27,2.27-2.29V95l-3-3.24h-2.59v-14l9.22,7.69Zm0,36.4v3l-2.25,14h-3l-.67-6.34h-.2l-.67,6.34h-2.45V121.77h.43l1.08,8.19h.22l.47-8.19h2l.47,8.19H310l1.08-8.19Zm0,13.23-.49,3.71h.49V135Zm-9.22-34h.49V96.18h-.49Zm-2-85h2v13l-.88.85V77l.88.72v14h-2V16Zm2,126.05h-2v-.52h2v.52Zm0-45.9V101h-.5V96.18Zm0,9.36V119h-2v-4.28h1.46v-9.18Zm0,16.24v16.94h-.54l-1.42-8.78v-8.15ZM297.58,16h5.53V91.73h-3.89v23h3.89V119h-5.53V104.78h.23v-3.11h-.23V58.11l3.67-3.17v-25l-3.67-3.28V16Zm5.53,126.05h-5.53v-.52h5.53v.52Zm0-20.3v8.15l-1.31-8.15Zm-5.53,16.94v-17h4V125h-1.94v13.68ZM289.07,16h8.51V26.64l-6.71-6h-1.8V16Zm8.51,126.05h-8.51v-.52h8.51v.52Zm0-84v43.56h-4.81v3.11h4.81V119h-8.51v-5.8l1.76-1.73V95l-1.76-1.87V63.94h1.73l6.79-5.83Zm0,63.65v17h-2V125H293.6v-3.28Zm-8.51,17v-17h3.65V125h-3.24v3H292v3.26h-2.5v7.38ZM285,16h4.07v4.66H285V16Zm4.07,126.05H285v-.52h4.07v.52Zm0-78.14V93.1l-1.26-1.37H285V63.94Zm0,49.27V119H285v-4.28h2.52l1.55-1.51Zm0,8.55v17h-3.65v-17ZM285,110.29V96.18h.5v14.11ZM283.4,16H285v4.66h-1.6V16ZM285,142.08h-1.6v-.52H285v.52Zm0-78.14V91.73h-1.6V63.94Zm0,32.24v14.11h-.49V96.18Zm0,18.54V119h-1.6v-4.28Zm-1.6,21.94V123.81l.32.34v12.17l-.32.34Zm0-85.34V33.18h1.46V51.32ZM279.31,16h4.09v4.66h-4.09V16Zm4.09,126.05h-4.09v-.52h4.09v.52Zm0-108.9V51.32H282V33.18Zm0,30.76V91.73h-4.09V86.2H282V63.94Zm0,50.78V119h-4.09v-4.28Zm0,9.09v12.85l-2,2.05h-2.12v-3.28h.38V125h-.38v-3.26h2.12ZM271.09,16h8.23v4.66h-8.23V16Zm8.23,126.05h-8.23v-.52h8.23v.52Zm0-55.87v5.53h-.14v23h.14V119h-8.23v-4.28h2.52l3.31-3.24v-6.61h-5.33v5.42h-.5V96.18h.5v4.45h5.33V95l-3-3.24h-2.79V86.22l8.23,0Zm0,35.57V125h-.38v10.4h.38v3.28h-2.12l-2.29-2.39V124.15l2.29-2.38Zm-8.23,16.94V128.49h.18l.94,1,1.35,1.4v5.45l-2.29,2.39Zm0-11.43v-5.51h.18l2.29,2.38v3.13ZM261.74,16h9.34v4.66h-5.4V86.22h5.4v5.51h-2.81l-3,3.24v16.51l3.56,3.24h2.29V119h-8.8v22.55h8.8v.52h-9.34V16Zm9.34,80.15h-.5v14.11h.5V96.18Zm0,25.6H267l-2.29,2.38v5.27L267,131.8h2.5v3.64h-.76V133.2h-4v3.11l2.29,2.39h4.07V128.49h-2.32V125h.76v2.25h1.57Z"/><rect class="cls-1" x="163" y="100" width="339.5" height="44.5"/><text class="cls-4" transform="translate(32.94 350.19)">PORTS</text></svg>