<?xml version="1.0" encoding="utf-8"?>
<!-- Generator: Adobe Illustrator 21.0.0, SVG Export Plug-In . SVG Version: 6.00 Build 0)  -->
<svg version="1.1" id="Layer_1" xmlns="http://www.w3.org/2000/svg" xmlns:xlink="http://www.w3.org/1999/xlink" x="0px" y="0px"
	 viewBox="0 0 600 513" style="enable-background:new 0 0 600 513;" xml:space="preserve">
<style type="text/css">
	.st0{fill:#FFFFFF;}
	.st1{fill:#F20000;}
	.st2{fill:#0222A9;}
	.st3{fill:#011DA9;}
	.st4{fill:#069330;}
	.st5{fill:#FE2015;}
	.st6{fill:#FFC001;}
</style>
<rect class="st0" width="600" height="513"/>
<rect x="200" class="st1" width="201" height="100"/>
<path class="st2" d="M330.8,241l8.2-9.3v-63.2l-39.2,15.1l0,0l-32.5,57.9l32.5-12.5L330.8,241z"/>
<path class="st3" d="M401,329.1V222.3l39-15v167.4l-39.7,16.8l0,0L342,315.3v101L300,434V261.3l42.3-16.1L401,329.1z"/>
<path class="st2" d="M236.4,375L199,302.5v89.1l0,0L236.4,375z"/>
<path class="st4" d="M239.2,207.2L239.2,207.2l18.7,38.1l9.7-3.7l32.5-57.9l-39.2-15.3L239.2,207.2z"/>
<path class="st4" d="M331.3,241L331.3,241l29.9-33.8l39.8,15.3V329l-58.5-83.7L331.3,241z"/>
<path class="st4" d="M300,434.1V261.3l-42-16v87.3l-58.4-109.9l0,0L160,207.5V375l39,16.5v-89l58.7,113.9L300,434.1z"/>
<path class="st5" d="M199.5,222.5l39.8-15.3l18.7,38.1l0,0v87.7L199.5,222.5z"/>
<path class="st5" d="M342,356.9l12,16.8l46.5,17.9l0,0L342,315.2V356.9z"/>
<path class="st6" d="M258,245.3l42.2-16.1l42.2,16.1l0,0l-42.2,16.1L258,245.3z"/>
<path class="st6" d="M400.8,191.8l39.8,15.3l-39.8,15.3L361,207.2l0,0L400.8,191.8z"/>
<path class="st6" d="M199.4,191.8l39.8,15.3l-39.8,15.3l-39.8-15.3l0,0L199.4,191.8z"/>
<path class="st6" d="M300.1,153.1l-39.2,15.1l39.2,15.3l39.2-15.1l0,0L300.1,153.1z"/>
<path id="path29" class="st0" d="M243.3,68.9c-12,0-20.1-8.5-20.1-18.9l0,0c0-10.3,8.1-19,20.1-19h113.5c12,0,20.1,8.6,20.1,19l0,0
	c0,10.3-8,18.9-20.1,18.9H243.3z M243.3,35.7c-9.5,0-15.4,6.4-15.4,14.3l0,0c0,7.9,5.8,14.3,15.4,14.3h113.3
	c9.6,0,15.4-6.4,15.4-14.3l0,0c0-7.9-5.9-14.3-15.4-14.3L243.3,35.7z M362.8,42.4c0.9,0,1.3,0.3,1.3,0.9c0,0.4-0.2,0.7-0.7,0.8
	l0.7,1.4h-0.8l-0.6-1.2h-0.4v1.2h-0.7v-3H362.8z M362.7,41.2c-1.5,0-2.7,1.2-2.7,2.7c0,1.5,1.2,2.7,2.7,2.7c1.5,0,2.7-1.2,2.7-2.7
	C365.4,42.4,364.2,41.2,362.7,41.2z M364.9,43.9c0,1.2-1,2.2-2.2,2.2s-2.2-1-2.2-2.2c0-1.2,1-2.2,2.2-2.2S364.9,42.7,364.9,43.9z
	 M362.3,43.7h0.4c0.4,0,0.6-0.1,0.6-0.4c0-0.3-0.2-0.5-0.7-0.5h-0.3V43.7z M300.4,51.2c0-1,0-1.7,0.4-2.3c0.4-0.7,1.2-1.1,1.9-1.1h0
	c0.7,0,1.5,0.4,1.9,1.1c0.3,0.6,0.4,1.3,0.3,2.3L300.4,51.2z M304.8,54.7c0,0,0,0.1,0,0.7c0,2.2-1.4,2.6-2.2,2.6s-2.2-0.5-2.2-2.6
	c0-0.6,0-2.4,0-2.4s10.1,0,10.1,0c0-3.7-3.5-6.7-7.9-6.7s-7.9,3-7.9,6.7s3.5,6.6,7.9,6.6c3.6,0,6.7-2.1,7.6-4.9L304.8,54.7z
	 M321.7,46.5c2-0.1,6.1,1.3,6,5.9c0,0.8,0,6.4,0,6.4h-5.3c0,0,0-7,0-7.8c0-1-1-2.2-2.4-2.2c-1.5,0-2.5,1.1-2.5,2.2
	c0,0.5,0,7.8,0,7.8h-5.3l0-11.8l5.3,0c0,0,0,1,0,1.2C318.4,47.3,319.9,46.5,321.7,46.5L321.7,46.5z M278.1,46.5c2-0.1,6.1,1.3,6,5.9
	c0,0.8,0,6.4,0,6.4h-5.3c0,0,0-7,0-7.8c0-1-1-2.2-2.4-2.2c-1.5,0-2.5,1.1-2.5,2.2c0,0.5,0,7.8,0,7.8h-5.3l0-11.8l5.3,0
	c0,0,0,1,0,1.2C274.9,47.3,276.4,46.5,278.1,46.5L278.1,46.5z M339.2,41.1h5.3v17.8h-5.3c0,0,0-0.6,0-0.7c-2,1.3-4.4,1.3-6.2,0.4
	c-0.5-0.2-3.7-1.8-3.7-5.9c0-3.1,2.9-6.5,6.8-6.2c1.3,0.1,2.2,0.6,3,1.1C339.2,44.9,339.2,41.1,339.2,41.1L339.2,41.1z M339.3,52.9
	c0,0,0-1.5,0-2.1c0-1.8-1.3-2.3-2.1-2.3c-0.9,0-2.1,0.5-2.1,2.3c0,0.6,0,2.1,0,2.1s0,1.5,0,2.1c0,1.8,1.2,2.3,2.1,2.3
	c0.8,0,2.1-0.5,2.1-2.3C339.3,54.2,339.3,52.9,339.3,52.9L339.3,52.9z M356.3,52.9c0,0,0,1.8,0,2.5c0,1.9-1.1,2.7-2.2,2.7
	c-1.1,0-2.2-0.8-2.2-2.7c0-0.7,0-2.6,0-2.6s0-1.8,0-2.5c0-1.9,1.1-2.7,2.2-2.7c1.1,0,2.2,0.8,2.2,2.7
	C356.3,51.1,356.3,52.4,356.3,52.9L356.3,52.9z M354.1,46.2c-4.3,0-7.8,3-7.8,6.7s3.5,6.7,7.8,6.7c4.3,0,7.8-3,7.8-6.7
	C361.9,49.2,358.4,46.2,354.1,46.2z M260.2,44.7v-3.6h5.4v3.6H260.2z M260.2,58.9V47l5.4,0v11.8L260.2,58.9z M287.1,58.9l0-11.8
	h-2.9v-1.8l2.9,0l0-2.4h5.4v2.4h2.9v1.8h-2.9l0,11.8L287.1,58.9z M238.4,58.9l0-17.8h5.6l7.7,12.4l0-12.4h5.5v17.8h-5.5L244,46.5
	v12.4H238.4z"/>
<path class="st1" d="M359,42.4c-0.1,0.3,0,0.5,0,0.8c0.3,2.1,1.8,3.9,3.8,4.6c0.7,0.3,1.6,0.4,2.3,0c0.7-0.3,1.1-1,1.2-1.7
	c0.2-0.7,0.1-1.5,0.1-2.2c0-0.2,0-0.5-0.1-0.7c-0.1-0.3-0.4-0.4-0.6-0.6C364.3,41.4,359.8,39.2,359,42.4z"/>
</svg>
